<svg version="1.1" style="font-size: 1.5px; font-family: monospace" xmlns="http://www.w3.org/2000/svg" width="94.05mm" height="47.5mm" viewBox="0 0 94.05 47.5">
        <defs>
          <pattern id="characters" width="3.55" height="5.95" patternUnits="userSpaceOnUse" x="12.45" y="12.55">
            <rect width="2.95" height="5.55" fill-opacity="0.05"></rect>
          </pattern>
          <pattern id="pins" width="2.54" height="3.255" patternUnits="userSpaceOnUse" y="1.1">
            <path fill="#92926d" d="M0,0.55c0,0 0.21,-0.52 0.87,-0.52 0.67,0 0.81,0.51 0.81,0.51v1.81h-1.869z"></path>
            <circle r="0.45" cx="0.827" cy="0.9" color="black"></circle>
          </pattern>
        </defs>
        <rect fill="#087f45" width="94.05" height="47.5"></rect>
        <rect x="4.95" y="5.7" width="85.25" height="36.7"></rect>
        <rect x="7.55" y="10.3" rx="1.5" ry="1.5" width="80.05" height="27.5" fill="#6cb201"></rect>
        <rect x="7.55" y="10.3" rx="1.5" ry="1.5" width="80.05" height="27.5" opacity="0"></rect>
        <rect x="12.45" y="12.55" fill="url(#characters)" width="70.25" height="23"></rect>
        <path transform="translate(12.45, 12.55)" d="M 3.55 0.00h0.55v0.65h-0.55Z M 4.15 0.00h0.55v0.65h-0.55Z M 4.75 0.00h0.55v0.65h-0.55Z M 5.35 0.00h0.55v0.65h-0.55Z M 3.55 0.70h0.55v0.65h-0.55Z M 5.95 0.70h0.55v0.65h-0.55Z M 3.55 1.40h0.55v0.65h-0.55Z M 5.95 1.40h0.55v0.65h-0.55Z M 3.55 2.10h0.55v0.65h-0.55Z M 4.15 2.10h0.55v0.65h-0.55Z M 4.75 2.10h0.55v0.65h-0.55Z M 5.35 2.10h0.55v0.65h-0.55Z M 3.55 2.80h0.55v0.65h-0.55Z M 5.95 2.80h0.55v0.65h-0.55Z M 3.55 3.50h0.55v0.65h-0.55Z M 5.95 3.50h0.55v0.65h-0.55Z M 3.55 4.20h0.55v0.65h-0.55Z M 4.15 4.20h0.55v0.65h-0.55Z M 4.75 4.20h0.55v0.65h-0.55Z M 5.35 4.20h0.55v0.65h-0.55Z M 8.30 0.00h0.55v0.65h-0.55Z M 7.70 1.40h0.55v0.65h-0.55Z M 8.30 1.40h0.55v0.65h-0.55Z M 8.30 2.10h0.55v0.65h-0.55Z M 8.30 2.80h0.55v0.65h-0.55Z M 8.30 3.50h0.55v0.65h-0.55Z M 7.70 4.20h0.55v0.65h-0.55Z M 8.30 4.20h0.55v0.65h-0.55Z M 8.90 4.20h0.55v0.65h-0.55Z M 11.25 1.40h0.55v0.65h-0.55Z M 11.85 1.40h0.55v0.65h-0.55Z M 12.45 1.40h0.55v0.65h-0.55Z M 10.65 2.10h0.55v0.65h-0.55Z M 13.05 2.10h0.55v0.65h-0.55Z M 10.65 2.80h0.55v0.65h-0.55Z M 11.25 2.80h0.55v0.65h-0.55Z M 11.85 2.80h0.55v0.65h-0.55Z M 12.45 2.80h0.55v0.65h-0.55Z M 13.05 2.80h0.55v0.65h-0.55Z M 10.65 3.50h0.55v0.65h-0.55Z M 11.25 4.20h0.55v0.65h-0.55Z M 11.85 4.20h0.55v0.65h-0.55Z M 12.45 4.20h0.55v0.65h-0.55Z M 14.20 1.40h0.55v0.65h-0.55Z M 15.40 1.40h0.55v0.65h-0.55Z M 16.00 1.40h0.55v0.65h-0.55Z M 14.20 2.10h0.55v0.65h-0.55Z M 14.80 2.10h0.55v0.65h-0.55Z M 16.60 2.10h0.55v0.65h-0.55Z M 14.20 2.80h0.55v0.65h-0.55Z M 16.60 2.80h0.55v0.65h-0.55Z M 14.20 3.50h0.55v0.65h-0.55Z M 16.60 3.50h0.55v0.65h-0.55Z M 14.20 4.20h0.55v0.65h-0.55Z M 16.60 4.20h0.55v0.65h-0.55Z M 17.75 1.40h0.55v0.65h-0.55Z M 20.15 1.40h0.55v0.65h-0.55Z M 17.75 2.10h0.55v0.65h-0.55Z M 20.15 2.10h0.55v0.65h-0.55Z M 17.75 2.80h0.55v0.65h-0.55Z M 20.15 2.80h0.55v0.65h-0.55Z M 18.35 3.50h0.55v0.65h-0.55Z M 19.55 3.50h0.55v0.65h-0.55Z M 18.95 4.20h0.55v0.65h-0.55Z M 21.90 1.40h0.55v0.65h-0.55Z M 22.50 1.40h0.55v0.65h-0.55Z M 23.10 1.40h0.55v0.65h-0.55Z M 21.30 2.10h0.55v0.65h-0.55Z M 23.70 2.10h0.55v0.65h-0.55Z M 21.30 2.80h0.55v0.65h-0.55Z M 21.90 2.80h0.55v0.65h-0.55Z M 22.50 2.80h0.55v0.65h-0.55Z M 23.10 2.80h0.55v0.65h-0.55Z M 23.70 2.80h0.55v0.65h-0.55Z M 21.30 3.50h0.55v0.65h-0.55Z M 21.90 4.20h0.55v0.65h-0.55Z M 22.50 4.20h0.55v0.65h-0.55Z M 23.10 4.20h0.55v0.65h-0.55Z M 24.85 1.40h0.55v0.65h-0.55Z M 26.05 1.40h0.55v0.65h-0.55Z M 26.65 1.40h0.55v0.65h-0.55Z M 24.85 2.10h0.55v0.65h-0.55Z M 25.45 2.10h0.55v0.65h-0.55Z M 27.25 2.10h0.55v0.65h-0.55Z M 24.85 2.80h0.55v0.65h-0.55Z M 27.25 2.80h0.55v0.65h-0.55Z M 24.85 3.50h0.55v0.65h-0.55Z M 27.25 3.50h0.55v0.65h-0.55Z M 24.85 4.20h0.55v0.65h-0.55Z M 27.25 4.20h0.55v0.65h-0.55Z M 29.60 0.00h0.55v0.65h-0.55Z M 29.00 1.40h0.55v0.65h-0.55Z M 29.60 1.40h0.55v0.65h-0.55Z M 29.60 2.10h0.55v0.65h-0.55Z M 29.60 2.80h0.55v0.65h-0.55Z M 29.60 3.50h0.55v0.65h-0.55Z M 29.00 4.20h0.55v0.65h-0.55Z M 29.60 4.20h0.55v0.65h-0.55Z M 30.20 4.20h0.55v0.65h-0.55Z M 34.35 0.00h0.55v0.65h-0.55Z M 34.35 0.70h0.55v0.65h-0.55Z M 32.55 1.40h0.55v0.65h-0.55Z M 33.15 1.40h0.55v0.65h-0.55Z M 34.35 1.40h0.55v0.65h-0.55Z M 31.95 2.10h0.55v0.65h-0.55Z M 33.75 2.10h0.55v0.65h-0.55Z M 34.35 2.10h0.55v0.65h-0.55Z M 31.95 2.80h0.55v0.65h-0.55Z M 34.35 2.80h0.55v0.65h-0.55Z M 31.95 3.50h0.55v0.65h-0.55Z M 34.35 3.50h0.55v0.65h-0.55Z M 32.55 4.20h0.55v0.65h-0.55Z M 33.15 4.20h0.55v0.65h-0.55Z M 33.75 4.20h0.55v0.65h-0.55Z M 34.35 4.20h0.55v0.65h-0.55Z M 36.10 1.40h0.55v0.65h-0.55Z M 36.70 1.40h0.55v0.65h-0.55Z M 37.30 1.40h0.55v0.65h-0.55Z M 35.50 2.10h0.55v0.65h-0.55Z M 37.90 2.10h0.55v0.65h-0.55Z M 35.50 2.80h0.55v0.65h-0.55Z M 37.90 2.80h0.55v0.65h-0.55Z M 35.50 3.50h0.55v0.65h-0.55Z M 37.90 3.50h0.55v0.65h-0.55Z M 36.10 4.20h0.55v0.65h-0.55Z M 36.70 4.20h0.55v0.65h-0.55Z M 37.30 4.20h0.55v0.65h-0.55Z M 43.20 1.40h0.55v0.65h-0.55Z M 43.80 1.40h0.55v0.65h-0.55Z M 44.40 1.40h0.55v0.65h-0.55Z M 45.00 2.10h0.55v0.65h-0.55Z M 43.20 2.80h0.55v0.65h-0.55Z M 43.80 2.80h0.55v0.65h-0.55Z M 44.40 2.80h0.55v0.65h-0.55Z M 45.00 2.80h0.55v0.65h-0.55Z M 42.60 3.50h0.55v0.65h-0.55Z M 45.00 3.50h0.55v0.65h-0.55Z M 43.20 4.20h0.55v0.65h-0.55Z M 43.80 4.20h0.55v0.65h-0.55Z M 44.40 4.20h0.55v0.65h-0.55Z M 45.00 4.20h0.55v0.65h-0.55Z M 49.70 1.40h0.55v0.65h-0.55Z M 50.30 1.40h0.55v0.65h-0.55Z M 51.50 1.40h0.55v0.65h-0.55Z M 49.70 2.10h0.55v0.65h-0.55Z M 50.90 2.10h0.55v0.65h-0.55Z M 52.10 2.10h0.55v0.65h-0.55Z M 49.70 2.80h0.55v0.65h-0.55Z M 50.90 2.80h0.55v0.65h-0.55Z M 52.10 2.80h0.55v0.65h-0.55Z M 49.70 3.50h0.55v0.65h-0.55Z M 52.10 3.50h0.55v0.65h-0.55Z M 49.70 4.20h0.55v0.65h-0.55Z M 52.10 4.20h0.55v0.65h-0.55Z M 54.45 0.00h0.55v0.65h-0.55Z M 53.85 1.40h0.55v0.65h-0.55Z M 54.45 1.40h0.55v0.65h-0.55Z M 54.45 2.10h0.55v0.65h-0.55Z M 54.45 2.80h0.55v0.65h-0.55Z M 54.45 3.50h0.55v0.65h-0.55Z M 53.85 4.20h0.55v0.65h-0.55Z M 54.45 4.20h0.55v0.65h-0.55Z M 55.05 4.20h0.55v0.65h-0.55Z M 14.80 5.95h0.55v0.65h-0.55Z M 15.40 5.95h0.55v0.65h-0.55Z M 16.00 5.95h0.55v0.65h-0.55Z M 14.20 6.65h0.55v0.65h-0.55Z M 16.60 6.65h0.55v0.65h-0.55Z M 14.20 7.35h0.55v0.65h-0.55Z M 14.20 8.05h0.55v0.65h-0.55Z M 15.40 8.05h0.55v0.65h-0.55Z M 16.00 8.05h0.55v0.65h-0.55Z M 16.60 8.05h0.55v0.65h-0.55Z M 14.20 8.75h0.55v0.65h-0.55Z M 16.60 8.75h0.55v0.65h-0.55Z M 14.20 9.45h0.55v0.65h-0.55Z M 16.60 9.45h0.55v0.65h-0.55Z M 14.80 10.15h0.55v0.65h-0.55Z M 15.40 10.15h0.55v0.65h-0.55Z M 16.00 10.15h0.55v0.65h-0.55Z M 16.60 10.15h0.55v0.65h-0.55Z M 18.95 5.95h0.55v0.65h-0.55Z M 18.35 7.35h0.55v0.65h-0.55Z M 18.95 7.35h0.55v0.65h-0.55Z M 18.95 8.05h0.55v0.65h-0.55Z M 18.95 8.75h0.55v0.65h-0.55Z M 18.95 9.45h0.55v0.65h-0.55Z M 18.35 10.15h0.55v0.65h-0.55Z M 18.95 10.15h0.55v0.65h-0.55Z M 19.55 10.15h0.55v0.65h-0.55Z M 21.90 5.95h0.55v0.65h-0.55Z M 21.90 6.65h0.55v0.65h-0.55Z M 21.30 7.35h0.55v0.65h-0.55Z M 21.90 7.35h0.55v0.65h-0.55Z M 22.50 7.35h0.55v0.65h-0.55Z M 21.90 8.05h0.55v0.65h-0.55Z M 21.90 8.75h0.55v0.65h-0.55Z M 21.90 9.45h0.55v0.65h-0.55Z M 23.70 9.45h0.55v0.65h-0.55Z M 22.50 10.15h0.55v0.65h-0.55Z M 23.10 10.15h0.55v0.65h-0.55Z M 24.85 5.95h0.55v0.65h-0.55Z M 27.25 5.95h0.55v0.65h-0.55Z M 24.85 6.65h0.55v0.65h-0.55Z M 27.25 6.65h0.55v0.65h-0.55Z M 24.85 7.35h0.55v0.65h-0.55Z M 27.25 7.35h0.55v0.65h-0.55Z M 24.85 8.05h0.55v0.65h-0.55Z M 25.45 8.05h0.55v0.65h-0.55Z M 26.05 8.05h0.55v0.65h-0.55Z M 26.65 8.05h0.55v0.65h-0.55Z M 27.25 8.05h0.55v0.65h-0.55Z M 24.85 8.75h0.55v0.65h-0.55Z M 27.25 8.75h0.55v0.65h-0.55Z M 24.85 9.45h0.55v0.65h-0.55Z M 27.25 9.45h0.55v0.65h-0.55Z M 24.85 10.15h0.55v0.65h-0.55Z M 27.25 10.15h0.55v0.65h-0.55Z M 28.40 7.35h0.55v0.65h-0.55Z M 30.80 7.35h0.55v0.65h-0.55Z M 28.40 8.05h0.55v0.65h-0.55Z M 30.80 8.05h0.55v0.65h-0.55Z M 28.40 8.75h0.55v0.65h-0.55Z M 30.80 8.75h0.55v0.65h-0.55Z M 28.40 9.45h0.55v0.65h-0.55Z M 30.20 9.45h0.55v0.65h-0.55Z M 30.80 9.45h0.55v0.65h-0.55Z M 29.00 10.15h0.55v0.65h-0.55Z M 29.60 10.15h0.55v0.65h-0.55Z M 30.80 10.15h0.55v0.65h-0.55Z M 31.95 5.95h0.55v0.65h-0.55Z M 31.95 6.65h0.55v0.65h-0.55Z M 31.95 7.35h0.55v0.65h-0.55Z M 33.15 7.35h0.55v0.65h-0.55Z M 33.75 7.35h0.55v0.65h-0.55Z M 31.95 8.05h0.55v0.65h-0.55Z M 32.55 8.05h0.55v0.65h-0.55Z M 34.35 8.05h0.55v0.65h-0.55Z M 31.95 8.75h0.55v0.65h-0.55Z M 34.35 8.75h0.55v0.65h-0.55Z M 31.95 9.45h0.55v0.65h-0.55Z M 34.35 9.45h0.55v0.65h-0.55Z M 31.95 10.15h0.55v0.65h-0.55Z M 32.55 10.15h0.55v0.65h-0.55Z M 33.15 10.15h0.55v0.65h-0.55Z M 33.75 10.15h0.55v0.65h-0.55Z" fill="black"></path>
</svg>
